# Blender 3.2.0
# www.blender.org
mtllib voxel-low-profile-track.mtl
o RAIL_LEFT
v -0.500000 0.061500 0.875000
v -0.500000 -0.000000 0.812500
v -0.500000 -0.000000 0.875000
v -0.500000 0.062500 0.812500
v -0.500000 -0.000000 0.750000
v -0.500000 0.061500 0.750000
v 0.500000 -0.000000 0.875000
v 0.500000 -0.000000 0.812500
v 0.500000 0.061500 0.875000
v 0.500000 -0.000000 0.750000
v 0.500000 0.062500 0.812500
v 0.500000 0.061500 0.750000
vn -1.0000 -0.0000 -0.0000
vn 1.0000 -0.0000 -0.0000
vn -0.0000 -0.0000 1.0000
vn -0.0000 -0.0000 -1.0000
vn -0.0000 -1.0000 -0.0000
vn -0.0000 0.9999 0.0160
vn -0.0000 0.9999 -0.0160
vt 0.250000 1.000000
vt 0.187500 1.000000
vt 0.250000 0.937500
vt 0.187500 1.000000
vt 0.250000 1.000000
vt 0.187500 0.937500
vt 0.187500 1.000000
vt 0.250000 1.000000
vt 0.250000 1.000000
vt 0.312500 0.937500
vt 0.312500 1.000000
vt 0.250000 1.000000
vt 0.312500 1.000000
vt 0.187500 -0.000000
vt 0.250000 0.000000
vt 0.187500 0.000000
vt 0.250000 0.000000
vt 0.187500 0.062500
vt 0.250000 -0.000000
vt 0.187500 0.000000
vt 0.312500 0.000000
vt 0.250000 0.062500
vt 0.250000 -0.000000
vt 0.312500 0.062500
vt 0.250000 -0.000000
vt 0.312500 -0.000000
s 1
usemtl texture
f 1/2/1 2/3/1 3/6/1
f 4/9/1 5/10/1 2/3/1
f 4/9/1 2/3/1 1/2/1
f 6/13/1 5/10/1 4/9/1
f 7/14/2 8/17/2 9/18/2
f 8/17/2 10/21/2 11/22/2
f 9/18/2 8/17/2 11/22/2
f 11/22/2 10/21/2 12/24/2
f 7/14/3 1/1/3 3/7/3
f 9/19/3 1/1/3 7/14/3
f 5/11/4 6/12/4 10/21/4
f 10/21/4 6/12/4 12/25/4
f 2/4/5 7/15/5 3/8/5
f 8/16/5 7/15/5 2/4/5
f 5/11/5 8/17/5 2/5/5
f 10/21/5 8/17/5 5/11/5
f 1/2/6 9/20/6 4/9/6
f 4/9/6 9/20/6 11/23/6
f 4/9/7 11/23/7 6/13/7
f 6/13/7 11/23/7 12/26/7
o RAIL_RIGHT
v -0.500000 0.061500 -0.750000
v -0.500000 0.000000 -0.812500
v -0.500000 0.000000 -0.750000
v -0.500000 0.062500 -0.812500
v -0.500000 0.000000 -0.875000
v -0.500000 0.061500 -0.875000
v 0.500000 0.000000 -0.750000
v 0.500000 0.000000 -0.812500
v 0.500000 0.061500 -0.750000
v 0.500000 0.000000 -0.875000
v 0.500000 0.062500 -0.812500
v 0.500000 0.061500 -0.875000
vn -1.0000 -0.0000 -0.0000
vn 1.0000 -0.0000 -0.0000
vn -0.0000 -0.0000 1.0000
vn -0.0000 -0.0000 -1.0000
vn -0.0000 -1.0000 -0.0000
vn -0.0000 0.9999 0.0160
vn -0.0000 0.9999 -0.0160
vt 0.687500 0.937500
vt 0.750000 1.000000
vt 0.687500 1.000000
vt 0.750000 1.000000
vt 0.687500 1.000000
vt 0.750000 0.937500
vt 0.750000 1.000000
vt 0.812500 1.000000
vt 0.812500 0.937500
vt 0.750000 1.000000
vt 0.812500 1.000000
vt 0.687500 0.000000
vt 0.750000 0.000000
vt 0.687500 0.062500
vt 0.750000 -0.000000
vt 0.687500 -0.000000
vt 0.812500 0.000000
vt 0.750000 0.062500
vt 0.750000 -0.000000
vt 0.812500 0.062500
vt 0.750000 0.000000
vt 0.812500 -0.000000
s 1
usemtl texture
f 13/27/8 14/30/8 15/31/8
f 16/32/8 17/34/8 14/30/8
f 16/32/8 14/30/8 13/27/8
f 18/35/8 17/34/8 16/32/8
f 19/38/9 20/39/9 21/40/9
f 20/39/9 22/43/9 23/44/9
f 21/40/9 20/39/9 23/44/9
f 23/44/9 22/43/9 24/46/9
f 19/38/10 13/28/10 15/31/10
f 21/41/10 13/28/10 19/38/10
f 17/34/11 18/36/11 22/43/11
f 22/43/11 18/36/11 24/47/11
f 14/30/12 19/38/12 15/31/12
f 20/39/12 19/38/12 14/30/12
f 17/34/12 20/39/12 14/30/12
f 22/43/12 20/39/12 17/34/12
f 13/29/13 21/42/13 16/33/13
f 16/33/13 21/42/13 23/45/13
f 16/33/14 23/45/14 18/37/14
f 18/37/14 23/45/14 24/48/14
