# WaveFront *.obj file (generated by CINEMA 4D)

mtllib ./schiene_beton.mtl

v -0.15625 0.15625 0.46875
v -0.15625 0 -1.1875
v -0.15625 0 1.1875
v -0.15625 0.15625 -0.46875
v -0.15625 0.1875 0.59375
v -0.15625 0.1875 0.46875
v -0.15625 0.1875 -0.46875
v -0.15625 0.1875 -0.59375
v -0.15625 0.21875 1.1875
v -0.15625 0.21875 0.59375
v -0.15625 0.21875 -0.59375
v -0.15625 0.21875 -1.1875
v 0.15625 0 1.1875
v 0.15625 0 -1.1875
v 0.15625 0.15625 0.46875
v 0.15625 0.15625 -0.46875
v 0.15625 0.1875 0.59375
v 0.15625 0.1875 0.46875
v 0.15625 0.1875 -0.46875
v 0.15625 0.1875 -0.59375
v 0.15625 0.21875 1.1875
v 0.15625 0.21875 0.59375
v 0.15625 0.21875 -0.59375
v 0.15625 0.21875 -1.1875
v -0.0625 0.21875 1
v 0.0625 0.21875 1
v -0.0625 0.21875 0.65625
v 0.0625 0.21875 0.65625
v -0.0625 0.21875 -0.65625
v 0.0625 0.21875 -0.65625
v -0.0625 0.21875 -1
v 0.0625 0.21875 -1
# 32 vertices

vn -1 0 0
vn 1 0 0
vn 0 0 1
vn 0 0 -1
vn 0 -1 0
vn 0 1 0
# 6 normals

vt 0.97851598262787 0.5 0
vt 0.53320300579071 0.5 0
# 2 texture coordinates

o RAIL_BASE_1
usemtl palette
f 1/1/1 2/1/1 3/1/1
f 4/1/1 2/1/1 1/1/1
f 5/1/1 1/1/1 3/1/1
f 6/1/1 1/1/1 5/1/1
f 7/1/1 2/1/1 4/1/1
f 8/1/1 2/1/1 7/1/1
f 9/1/1 5/1/1 3/1/1
f 10/1/1 5/1/1 9/1/1
f 11/1/1 2/1/1 8/1/1
f 12/1/1 2/1/1 11/1/1
f 13/1/2 14/1/2 15/1/2
f 15/1/2 14/1/2 16/1/2
f 13/1/2 15/1/2 17/1/2
f 17/1/2 15/1/2 18/1/2
f 16/1/2 14/1/2 19/1/2
f 19/1/2 14/1/2 20/1/2
f 13/1/2 17/1/2 21/1/2
f 21/1/2 17/1/2 22/1/2
f 20/1/2 14/1/2 23/1/2
f 23/1/2 14/1/2 24/1/2
f 13/1/3 9/1/3 3/1/3
f 21/1/3 9/1/3 13/1/3
f 16/1/3 7/1/3 4/1/3
f 19/1/3 7/1/3 16/1/3
f 20/1/3 11/1/3 8/1/3
f 23/1/3 11/1/3 20/1/3
f 5/1/4 10/1/4 17/1/4
f 17/1/4 10/1/4 22/1/4
f 1/1/4 6/1/4 15/1/4
f 15/1/4 6/1/4 18/1/4
f 2/1/4 12/1/4 14/1/4
f 14/1/4 12/1/4 24/1/4
f 2/1/5 13/1/5 3/1/5
f 14/1/5 13/1/5 2/1/5
f 1/1/6 15/1/6 4/1/6
f 4/1/6 15/1/6 16/1/6
f 5/1/6 17/1/6 6/1/6
f 6/1/6 17/1/6 18/1/6
f 7/1/6 19/1/6 8/1/6
f 8/1/6 19/1/6 20/1/6
f 9/1/6 21/1/6 25/1/6
f 25/1/6 21/1/6 26/1/6
f 9/1/6 25/1/6 27/1/6
f 25/2/6 26/2/6 27/2/6
f 26/1/6 21/1/6 28/1/6
f 27/2/6 26/2/6 28/2/6
f 9/1/6 27/1/6 10/1/6
f 27/1/6 28/1/6 10/1/6
f 28/1/6 21/1/6 22/1/6
f 10/1/6 28/1/6 22/1/6
f 11/1/6 23/1/6 29/1/6
f 29/1/6 23/1/6 30/1/6
f 11/1/6 29/1/6 31/1/6
f 29/2/6 30/2/6 31/2/6
f 30/1/6 23/1/6 32/1/6
f 31/2/6 30/2/6 32/2/6
f 11/1/6 31/1/6 12/1/6
f 31/1/6 32/1/6 12/1/6
f 32/1/6 23/1/6 24/1/6
f 12/1/6 32/1/6 24/1/6

v -0.0625 0.28125 0.90625
v -0.0625 0.25 0.84375
v -0.0625 0.25 0.90625
v -0.0625 0.28125 0.84375
v -0.0625 0.28125 0.8125
v -0.0625 0.25 0.75
v -0.0625 0.25 0.8125
v -0.0625 0.28125 0.75
v -0.0625 0.28125 -0.75
v -0.0625 0.25 -0.8125
v -0.0625 0.25 -0.75
v -0.0625 0.28125 -0.8125
v -0.0625 0.28125 -0.84375
v -0.0625 0.25 -0.90625
v -0.0625 0.25 -0.84375
v -0.0625 0.28125 -0.90625
v -0.03125 0.25 0.9375
v -0.03125 0.21875 0.90625
v -0.03125 0.21875 0.9375
v -0.03125 0.25 0.90625
v -0.03125 0.25 0.75
v -0.03125 0.21875 0.71875
v -0.03125 0.21875 0.75
v -0.03125 0.25 0.71875
v -0.03125 0.25 -0.71875
v -0.03125 0.21875 -0.75
v -0.03125 0.21875 -0.71875
v -0.03125 0.25 -0.75
v -0.03125 0.25 -0.90625
v -0.03125 0.21875 -0.9375
v -0.03125 0.21875 -0.90625
v -0.03125 0.25 -0.9375
v 0.03125 0.28125 0.90625
v 0.03125 0.25 0.84375
v 0.03125 0.25 0.90625
v 0.03125 0.28125 0.84375
v 0.03125 0.28125 0.8125
v 0.03125 0.25 0.75
v 0.03125 0.25 0.8125
v 0.03125 0.28125 0.75
v 0.03125 0.28125 -0.75
v 0.03125 0.25 -0.8125
v 0.03125 0.25 -0.75
v 0.03125 0.28125 -0.8125
v 0.03125 0.28125 -0.84375
v 0.03125 0.25 -0.90625
v 0.03125 0.25 -0.84375
v 0.03125 0.28125 -0.90625
v -0.03125 0.25 0.84375
v -0.03125 0.28125 0.90625
v -0.03125 0.28125 0.84375
v -0.03125 0.25 0.8125
v -0.03125 0.28125 0.8125
v -0.03125 0.28125 0.75
v -0.03125 0.25 -0.8125
v -0.03125 0.28125 -0.75
v -0.03125 0.28125 -0.8125
v -0.03125 0.25 -0.84375
v -0.03125 0.28125 -0.84375
v -0.03125 0.28125 -0.90625
v 0.03125 0.21875 0.9375
v 0.03125 0.21875 0.90625
v 0.03125 0.25 0.9375
v 0.03125 0.21875 0.75
v 0.03125 0.21875 0.71875
v 0.03125 0.25 0.71875
v 0.03125 0.21875 -0.71875
v 0.03125 0.21875 -0.75
v 0.03125 0.25 -0.71875
v 0.03125 0.21875 -0.90625
v 0.03125 0.21875 -0.9375
v 0.03125 0.25 -0.9375
v 0.0625 0.25 0.90625
v 0.0625 0.25 0.84375
v 0.0625 0.28125 0.90625
v 0.0625 0.28125 0.84375
v 0.0625 0.25 0.8125
v 0.0625 0.25 0.75
v 0.0625 0.28125 0.8125
v 0.0625 0.28125 0.75
v 0.0625 0.25 -0.75
v 0.0625 0.25 -0.8125
v 0.0625 0.28125 -0.75
v 0.0625 0.28125 -0.8125
v 0.0625 0.25 -0.84375
v 0.0625 0.25 -0.90625
v 0.0625 0.28125 -0.84375
v 0.0625 0.28125 -0.90625
# 88 vertices

# 0 normal

vt 0.53710901737213 0.5 0
# 1 texture coordinate

o RAIL_BASE
usemtl palette
f 33/3/1 34/3/1 35/3/1
f 36/3/1 34/3/1 33/3/1
f 37/3/1 38/3/1 39/3/1
f 40/3/1 38/3/1 37/3/1
f 41/3/1 42/3/1 43/3/1
f 44/3/1 42/3/1 41/3/1
f 45/3/1 46/3/1 47/3/1
f 48/3/1 46/3/1 45/3/1
f 49/3/1 50/3/1 51/3/1
f 52/3/1 50/3/1 49/3/1
f 53/3/1 54/3/1 55/3/1
f 56/3/1 54/3/1 53/3/1
f 57/3/1 58/3/1 59/3/1
f 60/3/1 58/3/1 57/3/1
f 61/3/1 62/3/1 63/3/1
f 64/3/1 62/3/1 61/3/1
f 65/3/1 66/3/1 67/3/1
f 68/3/1 66/3/1 65/3/1
f 69/3/1 70/3/1 71/3/1
f 72/3/1 70/3/1 69/3/1
f 73/3/1 74/3/1 75/3/1
f 76/3/1 74/3/1 73/3/1
f 77/3/1 78/3/1 79/3/1
f 80/3/1 78/3/1 77/3/1
f 52/3/2 81/3/2 82/3/2
f 82/3/2 81/3/2 83/3/2
f 84/3/2 53/3/2 85/3/2
f 85/3/2 53/3/2 86/3/2
f 60/3/2 87/3/2 88/3/2
f 88/3/2 87/3/2 89/3/2
f 90/3/2 61/3/2 91/3/2
f 91/3/2 61/3/2 92/3/2
f 93/3/2 94/3/2 95/3/2
f 95/3/2 94/3/2 67/3/2
f 96/3/2 97/3/2 70/3/2
f 70/3/2 97/3/2 98/3/2
f 99/3/2 100/3/2 101/3/2
f 101/3/2 100/3/2 75/3/2
f 102/3/2 103/3/2 78/3/2
f 78/3/2 103/3/2 104/3/2
f 105/3/2 106/3/2 107/3/2
f 107/3/2 106/3/2 108/3/2
f 109/3/2 110/3/2 111/3/2
f 111/3/2 110/3/2 112/3/2
f 113/3/2 114/3/2 115/3/2
f 115/3/2 114/3/2 116/3/2
f 117/3/2 118/3/2 119/3/2
f 119/3/2 118/3/2 120/3/2
f 93/3/3 49/3/3 51/3/3
f 95/3/3 49/3/3 93/3/3
f 52/3/3 33/3/3 35/3/3
f 82/3/3 33/3/3 52/3/3
f 105/3/3 65/3/3 67/3/3
f 107/3/3 65/3/3 105/3/3
f 84/3/3 37/3/3 39/3/3
f 85/3/3 37/3/3 84/3/3
f 109/3/3 69/3/3 71/3/3
f 111/3/3 69/3/3 109/3/3
f 96/3/3 53/3/3 55/3/3
f 70/3/3 53/3/3 96/3/3
f 99/3/3 57/3/3 59/3/3
f 101/3/3 57/3/3 99/3/3
f 60/3/3 41/3/3 43/3/3
f 88/3/3 41/3/3 60/3/3
f 113/3/3 73/3/3 75/3/3
f 115/3/3 73/3/3 113/3/3
f 90/3/3 45/3/3 47/3/3
f 91/3/3 45/3/3 90/3/3
f 117/3/3 77/3/3 79/3/3
f 119/3/3 77/3/3 117/3/3
f 102/3/3 61/3/3 63/3/3
f 78/3/3 61/3/3 102/3/3
f 50/3/4 52/3/4 94/3/4
f 94/3/4 52/3/4 67/3/4
f 34/3/4 36/3/4 81/3/4
f 81/3/4 36/3/4 83/3/4
f 66/3/4 68/3/4 106/3/4
f 106/3/4 68/3/4 108/3/4
f 38/3/4 40/3/4 53/3/4
f 53/3/4 40/3/4 86/3/4
f 70/3/4 72/3/4 110/3/4
f 110/3/4 72/3/4 112/3/4
f 54/3/4 56/3/4 97/3/4
f 97/3/4 56/3/4 98/3/4
f 58/3/4 60/3/4 100/3/4
f 100/3/4 60/3/4 75/3/4
f 42/3/4 44/3/4 87/3/4
f 87/3/4 44/3/4 89/3/4
f 74/3/4 76/3/4 114/3/4
f 114/3/4 76/3/4 116/3/4
f 46/3/4 48/3/4 61/3/4
f 61/3/4 48/3/4 92/3/4
f 78/3/4 80/3/4 118/3/4
f 118/3/4 80/3/4 120/3/4
f 62/3/4 64/3/4 103/3/4
f 103/3/4 64/3/4 104/3/4
f 50/3/5 93/3/5 51/3/5
f 94/3/5 93/3/5 50/3/5
f 54/3/5 96/3/5 55/3/5
f 97/3/5 96/3/5 54/3/5
f 58/3/5 99/3/5 59/3/5
f 100/3/5 99/3/5 58/3/5
f 62/3/5 102/3/5 63/3/5
f 103/3/5 102/3/5 62/3/5
f 34/3/5 52/3/5 35/3/5
f 81/3/5 52/3/5 34/3/5
f 66/3/5 105/3/5 67/3/5
f 106/3/5 105/3/5 66/3/5
f 38/3/5 84/3/5 39/3/5
f 53/3/5 84/3/5 38/3/5
f 70/3/5 109/3/5 71/3/5
f 110/3/5 109/3/5 70/3/5
f 42/3/5 60/3/5 43/3/5
f 87/3/5 60/3/5 42/3/5
f 74/3/5 113/3/5 75/3/5
f 114/3/5 113/3/5 74/3/5
f 46/3/5 90/3/5 47/3/5
f 61/3/5 90/3/5 46/3/5
f 78/3/5 117/3/5 79/3/5
f 118/3/5 117/3/5 78/3/5
f 49/3/6 95/3/6 52/3/6
f 52/3/6 95/3/6 67/3/6
f 53/3/6 70/3/6 56/3/6
f 56/3/6 70/3/6 98/3/6
f 57/3/6 101/3/6 60/3/6
f 60/3/6 101/3/6 75/3/6
f 61/3/6 78/3/6 64/3/6
f 64/3/6 78/3/6 104/3/6
f 33/3/6 82/3/6 36/3/6
f 36/3/6 82/3/6 83/3/6
f 65/3/6 107/3/6 68/3/6
f 68/3/6 107/3/6 108/3/6
f 37/3/6 85/3/6 40/3/6
f 40/3/6 85/3/6 86/3/6
f 69/3/6 111/3/6 72/3/6
f 72/3/6 111/3/6 112/3/6
f 41/3/6 88/3/6 44/3/6
f 44/3/6 88/3/6 89/3/6
f 73/3/6 115/3/6 76/3/6
f 76/3/6 115/3/6 116/3/6
f 45/3/6 91/3/6 48/3/6
f 48/3/6 91/3/6 92/3/6
f 77/3/6 119/3/6 80/3/6
f 80/3/6 119/3/6 120/3/6

v 0.515625 0.25 0.75
v 0.515625 0.21875 0.90625
v 0.515625 0.21875 0.75
v 0.515625 0.25 0.8125
v 0.515625 0.25 0.84375
v 0.515625 0.25 0.90625
v 0.515625 0.375 0.8125
v 0.515625 0.375 0.84375
v 0.515625 0.40625 0.78125
v 0.515625 0.375 0.78125
v 0.515625 0.375 0.875
v 0.515625 0.40625 0.84375
v 0.515625 0.4375 0.78125
v 0.515625 0.4375 0.84375
v 0.515625 0.4375 0.875
v -0.515625 0.21875 0.75
v -0.515625 0.21875 0.90625
v -0.515625 0.25 0.75
v -0.515625 0.25 0.8125
v -0.515625 0.25 0.84375
v -0.515625 0.25 0.90625
v -0.515625 0.375 0.8125
v -0.515625 0.375 0.84375
v -0.515625 0.375 0.78125
v -0.515625 0.40625 0.78125
v -0.515625 0.375 0.875
v -0.515625 0.40625 0.84375
v -0.515625 0.4375 0.78125
v -0.515625 0.4375 0.84375
v -0.515625 0.4375 0.875
# 30 vertices

# 0 normal

vt 0.97070300579071 0.5 0
# 1 texture coordinate

o RAIL_LEFT
usemtl palette
f 121/2/2 122/2/2 123/2/2
f 124/2/2 122/2/2 121/2/2
f 125/2/2 122/2/2 124/2/2
f 126/2/2 122/2/2 125/2/2
f 127/2/2 125/2/2 124/2/2
f 128/2/2 125/2/2 127/2/2
f 129/2/2 127/2/2 130/2/2
f 129/2/2 131/2/2 128/2/2
f 129/2/2 128/2/2 127/2/2
f 132/2/2 131/2/2 129/2/2
f 133/4/2 132/4/2 129/4/2
f 134/2/2 131/2/2 132/2/2
f 134/4/2 132/4/2 133/4/2
f 135/2/2 131/2/2 134/2/2
f 136/2/1 137/2/1 138/2/1
f 138/2/1 137/2/1 139/2/1
f 139/2/1 137/2/1 140/2/1
f 140/2/1 137/2/1 141/2/1
f 139/2/1 140/2/1 142/2/1
f 142/2/1 140/2/1 143/2/1
f 144/2/1 142/2/1 145/2/1
f 143/2/1 146/2/1 145/2/1
f 142/2/1 143/2/1 145/2/1
f 145/2/1 146/2/1 147/2/1
f 145/4/1 147/4/1 148/4/1
f 147/2/1 146/2/1 149/2/1
f 148/4/1 147/4/1 149/4/1
f 149/2/1 146/2/1 150/2/1
f 136/2/4 121/2/4 123/2/4
f 138/2/4 121/2/4 136/2/4
f 144/2/4 129/2/4 130/2/4
f 145/4/4 133/4/4 129/4/4
f 145/2/4 129/2/4 144/2/4
f 148/4/4 133/4/4 145/4/4
f 139/2/4 127/2/4 124/2/4
f 142/2/4 127/2/4 139/2/4
f 125/2/3 128/2/3 140/2/3
f 140/2/3 128/2/3 143/2/3
f 131/2/3 135/2/3 146/2/3
f 146/2/3 135/2/3 150/2/3
f 122/2/3 126/2/3 137/2/3
f 137/2/3 126/2/3 141/2/3
f 122/2/5 136/2/5 123/2/5
f 137/2/5 136/2/5 122/2/5
f 127/2/5 144/2/5 130/2/5
f 142/2/5 144/2/5 127/2/5
f 131/2/5 143/2/5 128/2/5
f 146/2/5 143/2/5 131/2/5
f 121/2/6 138/2/6 124/2/6
f 124/2/6 138/2/6 139/2/6
f 125/2/6 140/2/6 126/2/6
f 126/2/6 140/2/6 141/2/6
f 133/4/6 148/4/6 134/4/6
f 134/4/6 148/4/6 149/4/6
f 134/2/6 149/2/6 135/2/6
f 135/2/6 149/2/6 150/2/6

v -0.515625 0.25 -0.75
v -0.515625 0.21875 -0.90625
v -0.515625 0.21875 -0.75
v -0.515625 0.25 -0.8125
v -0.515625 0.25 -0.84375
v -0.515625 0.25 -0.90625
v -0.515625 0.375 -0.8125
v -0.515625 0.375 -0.84375
v -0.515625 0.40625 -0.78125
v -0.515625 0.375 -0.78125
v -0.515625 0.375 -0.875
v -0.515625 0.40625 -0.84375
v -0.515625 0.4375 -0.78125
v -0.515625 0.4375 -0.84375
v -0.515625 0.4375 -0.875
v 0.515625 0.21875 -0.75
v 0.515625 0.21875 -0.90625
v 0.515625 0.25 -0.75
v 0.515625 0.25 -0.8125
v 0.515625 0.25 -0.84375
v 0.515625 0.25 -0.90625
v 0.515625 0.375 -0.8125
v 0.515625 0.375 -0.84375
v 0.515625 0.375 -0.78125
v 0.515625 0.40625 -0.78125
v 0.515625 0.375 -0.875
v 0.515625 0.40625 -0.84375
v 0.515625 0.4375 -0.78125
v 0.515625 0.4375 -0.84375
v 0.515625 0.4375 -0.875
# 30 vertices

# 0 normal

# 0 texture coordinate

o RAIL_RIGHT
usemtl palette
f 151/2/1 152/2/1 153/2/1
f 154/2/1 152/2/1 151/2/1
f 155/2/1 152/2/1 154/2/1
f 156/2/1 152/2/1 155/2/1
f 157/2/1 155/2/1 154/2/1
f 158/2/1 155/2/1 157/2/1
f 159/2/1 157/2/1 160/2/1
f 159/2/1 161/2/1 158/2/1
f 159/2/1 158/2/1 157/2/1
f 162/2/1 161/2/1 159/2/1
f 163/4/1 162/4/1 159/4/1
f 164/2/1 161/2/1 162/2/1
f 164/4/1 162/4/1 163/4/1
f 165/2/1 161/2/1 164/2/1
f 166/2/2 167/2/2 168/2/2
f 168/2/2 167/2/2 169/2/2
f 169/2/2 167/2/2 170/2/2
f 170/2/2 167/2/2 171/2/2
f 169/2/2 170/2/2 172/2/2
f 172/2/2 170/2/2 173/2/2
f 174/2/2 172/2/2 175/2/2
f 173/2/2 176/2/2 175/2/2
f 172/2/2 173/2/2 175/2/2
f 175/2/2 176/2/2 177/2/2
f 175/4/2 177/4/2 178/4/2
f 177/2/2 176/2/2 179/2/2
f 178/4/2 177/4/2 179/4/2
f 179/2/2 176/2/2 180/2/2
f 166/2/3 151/2/3 153/2/3
f 168/2/3 151/2/3 166/2/3
f 174/2/3 159/2/3 160/2/3
f 175/4/3 163/4/3 159/4/3
f 175/2/3 159/2/3 174/2/3
f 178/4/3 163/4/3 175/4/3
f 169/2/3 157/2/3 154/2/3
f 172/2/3 157/2/3 169/2/3
f 155/2/4 158/2/4 170/2/4
f 170/2/4 158/2/4 173/2/4
f 161/2/4 165/2/4 176/2/4
f 176/2/4 165/2/4 180/2/4
f 152/2/4 156/2/4 167/2/4
f 167/2/4 156/2/4 171/2/4
f 152/2/5 166/2/5 153/2/5
f 167/2/5 166/2/5 152/2/5
f 157/2/5 174/2/5 160/2/5
f 172/2/5 174/2/5 157/2/5
f 161/2/5 173/2/5 158/2/5
f 176/2/5 173/2/5 161/2/5
f 151/2/6 168/2/6 154/2/6
f 154/2/6 168/2/6 169/2/6
f 155/2/6 170/2/6 156/2/6
f 156/2/6 170/2/6 171/2/6
f 163/4/6 178/4/6 164/4/6
f 164/4/6 178/4/6 179/4/6
f 164/2/6 179/2/6 165/2/6
f 165/2/6 179/2/6 180/2/6

