# WaveFront *.obj file (generated by CINEMA 4D)

mtllib ./tramwood.mtl

v 0.53125 0.09375 0.78125
v 0.53125 0.0625 0.875
v 0.53125 0.0625 0.78125
v 0.53125 0.09375 0.8125
v 0.53125 0.09375 0.84375
v 0.53125 0.09375 0.875
v 0.53125 0.15625 0.8125
v 0.53125 0.15625 0.84375
v 0.53125 0.1875 0.78125
v 0.53125 0.15625 0.78125
v 0.53125 0.1875 0.84375
v 0.53125 0.15625 0.875
v 0.53125 0.1875 0.875
v -0.53125 0.0625 0.78125
v -0.53125 0.0625 0.875
v -0.53125 0.09375 0.78125
v -0.53125 0.09375 0.8125
v -0.53125 0.09375 0.84375
v -0.53125 0.09375 0.875
v -0.53125 0.15625 0.8125
v -0.53125 0.15625 0.84375
v -0.53125 0.15625 0.78125
v -0.53125 0.1875 0.78125
v -0.53125 0.15625 0.875
v -0.53125 0.1875 0.84375
v -0.53125 0.1875 0.875
# 26 vertices

vn 1 0 0
vn -1 0 0
vn 0 0 -1
vn 0 0 1
vn 0 -1 0
vn 0 1 0
# 6 normals

vt 0.53320300579071 0.5 0
vt 0.97070300579071 0.5 0
# 2 texture coordinates

o RAIL_LEFT
usemtl palette.001
f 1/1/1 2/1/1 3/1/1
f 4/1/1 2/1/1 1/1/1
f 5/1/1 2/1/1 4/1/1
f 6/1/1 2/1/1 5/1/1
f 7/1/1 5/1/1 4/1/1
f 8/1/1 5/1/1 7/1/1
f 9/2/1 7/2/1 10/2/1
f 9/2/1 8/2/1 7/2/1
f 11/1/1 12/1/1 8/1/1
f 11/2/1 8/2/1 9/2/1
f 13/1/1 12/1/1 11/1/1
f 14/1/2 15/1/2 16/1/2
f 16/1/2 15/1/2 17/1/2
f 17/1/2 15/1/2 18/1/2
f 18/1/2 15/1/2 19/1/2
f 17/1/2 18/1/2 20/1/2
f 20/1/2 18/1/2 21/1/2
f 22/2/2 20/2/2 23/2/2
f 20/2/2 21/2/2 23/2/2
f 21/1/2 24/1/2 25/1/2
f 23/2/2 21/2/2 25/2/2
f 25/1/2 24/1/2 26/1/2
f 14/1/3 1/1/3 3/1/3
f 16/1/3 1/1/3 14/1/3
f 22/2/3 9/2/3 10/2/3
f 23/2/3 9/2/3 22/2/3
f 17/1/3 7/1/3 4/1/3
f 20/1/3 7/1/3 17/1/3
f 5/1/4 8/1/4 18/1/4
f 18/1/4 8/1/4 21/1/4
f 2/1/4 6/1/4 15/1/4
f 15/1/4 6/1/4 19/1/4
f 12/1/4 13/1/4 24/1/4
f 24/1/4 13/1/4 26/1/4
f 2/1/5 14/1/5 3/1/5
f 15/1/5 14/1/5 2/1/5
f 7/2/5 22/2/5 10/2/5
f 20/2/5 22/2/5 7/2/5
f 12/1/5 21/1/5 8/1/5
f 24/1/5 21/1/5 12/1/5
f 1/1/6 16/1/6 4/1/6
f 4/1/6 16/1/6 17/1/6
f 5/1/6 18/1/6 6/1/6
f 6/1/6 18/1/6 19/1/6
f 9/2/6 23/2/6 11/2/6
f 11/2/6 23/2/6 25/2/6
f 11/1/6 25/1/6 13/1/6
f 13/1/6 25/1/6 26/1/6

v 0.53125 0.0625 -0.78125
v 0.53125 0.0625 -0.875
v 0.53125 0.09375 -0.78125
v 0.53125 0.09375 -0.8125
v 0.53125 0.09375 -0.84375
v 0.53125 0.09375 -0.875
v 0.53125 0.15625 -0.8125
v 0.53125 0.15625 -0.84375
v 0.53125 0.15625 -0.78125
v 0.53125 0.1875 -0.78125
v 0.53125 0.15625 -0.875
v 0.53125 0.1875 -0.84375
v 0.53125 0.1875 -0.875
v -0.53125 0.09375 -0.78125
v -0.53125 0.0625 -0.875
v -0.53125 0.0625 -0.78125
v -0.53125 0.09375 -0.8125
v -0.53125 0.09375 -0.84375
v -0.53125 0.09375 -0.875
v -0.53125 0.15625 -0.8125
v -0.53125 0.15625 -0.84375
v -0.53125 0.1875 -0.78125
v -0.53125 0.15625 -0.78125
v -0.53125 0.1875 -0.84375
v -0.53125 0.15625 -0.875
v -0.53125 0.1875 -0.875
# 26 vertices

# 0 normal

# 0 texture coordinate

o RAIL_RIGHT
usemtl palette.001
f 27/1/1 28/1/1 29/1/1
f 29/1/1 28/1/1 30/1/1
f 30/1/1 28/1/1 31/1/1
f 31/1/1 28/1/1 32/1/1
f 30/1/1 31/1/1 33/1/1
f 33/1/1 31/1/1 34/1/1
f 35/2/1 33/2/1 36/2/1
f 33/2/1 34/2/1 36/2/1
f 34/1/1 37/1/1 38/1/1
f 36/2/1 34/2/1 38/2/1
f 38/1/1 37/1/1 39/1/1
f 40/1/2 41/1/2 42/1/2
f 43/1/2 41/1/2 40/1/2
f 44/1/2 41/1/2 43/1/2
f 45/1/2 41/1/2 44/1/2
f 46/1/2 44/1/2 43/1/2
f 47/1/2 44/1/2 46/1/2
f 48/2/2 46/2/2 49/2/2
f 48/2/2 47/2/2 46/2/2
f 50/1/2 51/1/2 47/1/2
f 50/2/2 47/2/2 48/2/2
f 52/1/2 51/1/2 50/1/2
f 27/1/4 29/1/4 42/1/4
f 42/1/4 29/1/4 40/1/4
f 35/2/4 36/2/4 49/2/4
f 49/2/4 36/2/4 48/2/4
f 30/1/4 33/1/4 43/1/4
f 43/1/4 33/1/4 46/1/4
f 44/1/3 34/1/3 31/1/3
f 47/1/3 34/1/3 44/1/3
f 41/1/3 32/1/3 28/1/3
f 45/1/3 32/1/3 41/1/3
f 51/1/3 39/1/3 37/1/3
f 52/1/3 39/1/3 51/1/3
f 27/1/5 42/1/5 28/1/5
f 28/1/5 42/1/5 41/1/5
f 35/2/5 49/2/5 33/2/5
f 33/2/5 49/2/5 46/2/5
f 34/1/5 47/1/5 37/1/5
f 37/1/5 47/1/5 51/1/5
f 30/1/6 40/1/6 29/1/6
f 43/1/6 40/1/6 30/1/6
f 32/1/6 44/1/6 31/1/6
f 45/1/6 44/1/6 32/1/6
f 38/2/6 48/2/6 36/2/6
f 50/2/6 48/2/6 38/2/6
f 39/1/6 50/1/6 38/1/6
f 52/1/6 50/1/6 39/1/6

v -0.0625 0.125 0.875
v -0.0625 0.09375 0.84375
v -0.0625 0.09375 0.875
v -0.0625 0.125 0.84375
v -0.0625 0.125 0.8125
v -0.0625 0.09375 0.78125
v -0.0625 0.09375 0.8125
v -0.0625 0.125 0.78125
v -0.0625 0.125 -0.78125
v -0.0625 0.09375 -0.8125
v -0.0625 0.09375 -0.78125
v -0.0625 0.125 -0.8125
v -0.0625 0.125 -0.84375
v -0.0625 0.09375 -0.875
v -0.0625 0.09375 -0.84375
v -0.0625 0.125 -0.875
v -0.03125 0.09375 0.90625
v -0.03125 0.0625 0.875
v -0.03125 0.0625 0.90625
v -0.03125 0.09375 0.875
v -0.03125 0.09375 0.78125
v -0.03125 0.0625 0.75
v -0.03125 0.0625 0.78125
v -0.03125 0.09375 0.75
v -0.03125 0.09375 -0.75
v -0.03125 0.0625 -0.78125
v -0.03125 0.0625 -0.75
v -0.03125 0.09375 -0.78125
v -0.03125 0.09375 -0.875
v -0.03125 0.0625 -0.90625
v -0.03125 0.0625 -0.875
v -0.03125 0.09375 -0.90625
v 0.03125 0.125 0.875
v 0.03125 0.09375 0.84375
v 0.03125 0.09375 0.875
v 0.03125 0.125 0.84375
v 0.03125 0.125 0.8125
v 0.03125 0.09375 0.78125
v 0.03125 0.09375 0.8125
v 0.03125 0.125 0.78125
v 0.03125 0.125 -0.78125
v 0.03125 0.09375 -0.8125
v 0.03125 0.09375 -0.78125
v 0.03125 0.125 -0.8125
v 0.03125 0.125 -0.84375
v 0.03125 0.09375 -0.875
v 0.03125 0.09375 -0.84375
v 0.03125 0.125 -0.875
v -0.03125 0.09375 0.84375
v -0.03125 0.125 0.875
v -0.03125 0.125 0.84375
v -0.03125 0.09375 0.8125
v -0.03125 0.125 0.8125
v -0.03125 0.125 0.78125
v -0.03125 0.09375 -0.8125
v -0.03125 0.125 -0.78125
v -0.03125 0.125 -0.8125
v -0.03125 0.09375 -0.84375
v -0.03125 0.125 -0.84375
v -0.03125 0.125 -0.875
v 0.03125 0.0625 0.90625
v 0.03125 0.0625 0.875
v 0.03125 0.09375 0.90625
v 0.03125 0.0625 0.78125
v 0.03125 0.0625 0.75
v 0.03125 0.09375 0.75
v 0.03125 0.0625 -0.75
v 0.03125 0.0625 -0.78125
v 0.03125 0.09375 -0.75
v 0.03125 0.0625 -0.875
v 0.03125 0.0625 -0.90625
v 0.03125 0.09375 -0.90625
v 0.0625 0.09375 0.875
v 0.0625 0.09375 0.84375
v 0.0625 0.125 0.875
v 0.0625 0.125 0.84375
v 0.0625 0.09375 0.8125
v 0.0625 0.09375 0.78125
v 0.0625 0.125 0.8125
v 0.0625 0.125 0.78125
v 0.0625 0.09375 -0.78125
v 0.0625 0.09375 -0.8125
v 0.0625 0.125 -0.78125
v 0.0625 0.125 -0.8125
v 0.0625 0.09375 -0.84375
v 0.0625 0.09375 -0.875
v 0.0625 0.125 -0.84375
v 0.0625 0.125 -0.875
# 88 vertices

# 0 normal

vt 0.53710901737213 0.5 0
# 1 texture coordinate

o RAIL_BASE_1
usemtl palette.001
f 53/3/2 54/3/2 55/3/2
f 56/3/2 54/3/2 53/3/2
f 57/3/2 58/3/2 59/3/2
f 60/3/2 58/3/2 57/3/2
f 61/3/2 62/3/2 63/3/2
f 64/3/2 62/3/2 61/3/2
f 65/3/2 66/3/2 67/3/2
f 68/3/2 66/3/2 65/3/2
f 69/3/2 70/3/2 71/3/2
f 72/3/2 70/3/2 69/3/2
f 73/3/2 74/3/2 75/3/2
f 76/3/2 74/3/2 73/3/2
f 77/3/2 78/3/2 79/3/2
f 80/3/2 78/3/2 77/3/2
f 81/3/2 82/3/2 83/3/2
f 84/3/2 82/3/2 81/3/2
f 85/3/2 86/3/2 87/3/2
f 88/3/2 86/3/2 85/3/2
f 89/3/2 90/3/2 91/3/2
f 92/3/2 90/3/2 89/3/2
f 93/3/2 94/3/2 95/3/2
f 96/3/2 94/3/2 93/3/2
f 97/3/2 98/3/2 99/3/2
f 100/3/2 98/3/2 97/3/2
f 72/3/1 101/3/1 102/3/1
f 102/3/1 101/3/1 103/3/1
f 104/3/1 73/3/1 105/3/1
f 105/3/1 73/3/1 106/3/1
f 80/3/1 107/3/1 108/3/1
f 108/3/1 107/3/1 109/3/1
f 110/3/1 81/3/1 111/3/1
f 111/3/1 81/3/1 112/3/1
f 113/3/1 114/3/1 115/3/1
f 115/3/1 114/3/1 87/3/1
f 116/3/1 117/3/1 90/3/1
f 90/3/1 117/3/1 118/3/1
f 119/3/1 120/3/1 121/3/1
f 121/3/1 120/3/1 95/3/1
f 122/3/1 123/3/1 98/3/1
f 98/3/1 123/3/1 124/3/1
f 125/3/1 126/3/1 127/3/1
f 127/3/1 126/3/1 128/3/1
f 129/3/1 130/3/1 131/3/1
f 131/3/1 130/3/1 132/3/1
f 133/3/1 134/3/1 135/3/1
f 135/3/1 134/3/1 136/3/1
f 137/3/1 138/3/1 139/3/1
f 139/3/1 138/3/1 140/3/1
f 113/3/4 69/3/4 71/3/4
f 115/3/4 69/3/4 113/3/4
f 72/3/4 53/3/4 55/3/4
f 102/3/4 53/3/4 72/3/4
f 125/3/4 85/3/4 87/3/4
f 127/3/4 85/3/4 125/3/4
f 104/3/4 57/3/4 59/3/4
f 105/3/4 57/3/4 104/3/4
f 129/3/4 89/3/4 91/3/4
f 131/3/4 89/3/4 129/3/4
f 116/3/4 73/3/4 75/3/4
f 90/3/4 73/3/4 116/3/4
f 119/3/4 77/3/4 79/3/4
f 121/3/4 77/3/4 119/3/4
f 80/3/4 61/3/4 63/3/4
f 108/3/4 61/3/4 80/3/4
f 133/3/4 93/3/4 95/3/4
f 135/3/4 93/3/4 133/3/4
f 110/3/4 65/3/4 67/3/4
f 111/3/4 65/3/4 110/3/4
f 137/3/4 97/3/4 99/3/4
f 139/3/4 97/3/4 137/3/4
f 122/3/4 81/3/4 83/3/4
f 98/3/4 81/3/4 122/3/4
f 70/3/3 72/3/3 114/3/3
f 114/3/3 72/3/3 87/3/3
f 54/3/3 56/3/3 101/3/3
f 101/3/3 56/3/3 103/3/3
f 86/3/3 88/3/3 126/3/3
f 126/3/3 88/3/3 128/3/3
f 58/3/3 60/3/3 73/3/3
f 73/3/3 60/3/3 106/3/3
f 90/3/3 92/3/3 130/3/3
f 130/3/3 92/3/3 132/3/3
f 74/3/3 76/3/3 117/3/3
f 117/3/3 76/3/3 118/3/3
f 78/3/3 80/3/3 120/3/3
f 120/3/3 80/3/3 95/3/3
f 62/3/3 64/3/3 107/3/3
f 107/3/3 64/3/3 109/3/3
f 94/3/3 96/3/3 134/3/3
f 134/3/3 96/3/3 136/3/3
f 66/3/3 68/3/3 81/3/3
f 81/3/3 68/3/3 112/3/3
f 98/3/3 100/3/3 138/3/3
f 138/3/3 100/3/3 140/3/3
f 82/3/3 84/3/3 123/3/3
f 123/3/3 84/3/3 124/3/3
f 70/3/5 113/3/5 71/3/5
f 114/3/5 113/3/5 70/3/5
f 74/3/5 116/3/5 75/3/5
f 117/3/5 116/3/5 74/3/5
f 78/3/5 119/3/5 79/3/5
f 120/3/5 119/3/5 78/3/5
f 82/3/5 122/3/5 83/3/5
f 123/3/5 122/3/5 82/3/5
f 54/3/5 72/3/5 55/3/5
f 101/3/5 72/3/5 54/3/5
f 86/3/5 125/3/5 87/3/5
f 126/3/5 125/3/5 86/3/5
f 58/3/5 104/3/5 59/3/5
f 73/3/5 104/3/5 58/3/5
f 90/3/5 129/3/5 91/3/5
f 130/3/5 129/3/5 90/3/5
f 62/3/5 80/3/5 63/3/5
f 107/3/5 80/3/5 62/3/5
f 94/3/5 133/3/5 95/3/5
f 134/3/5 133/3/5 94/3/5
f 66/3/5 110/3/5 67/3/5
f 81/3/5 110/3/5 66/3/5
f 98/3/5 137/3/5 99/3/5
f 138/3/5 137/3/5 98/3/5
f 69/3/6 115/3/6 72/3/6
f 72/3/6 115/3/6 87/3/6
f 73/3/6 90/3/6 76/3/6
f 76/3/6 90/3/6 118/3/6
f 77/3/6 121/3/6 80/3/6
f 80/3/6 121/3/6 95/3/6
f 81/3/6 98/3/6 84/3/6
f 84/3/6 98/3/6 124/3/6
f 53/3/6 102/3/6 56/3/6
f 56/3/6 102/3/6 103/3/6
f 85/3/6 127/3/6 88/3/6
f 88/3/6 127/3/6 128/3/6
f 57/3/6 105/3/6 60/3/6
f 60/3/6 105/3/6 106/3/6
f 89/3/6 131/3/6 92/3/6
f 92/3/6 131/3/6 132/3/6
f 61/3/6 108/3/6 64/3/6
f 64/3/6 108/3/6 109/3/6
f 93/3/6 135/3/6 96/3/6
f 96/3/6 135/3/6 136/3/6
f 65/3/6 111/3/6 68/3/6
f 68/3/6 111/3/6 112/3/6
f 97/3/6 139/3/6 100/3/6
f 100/3/6 139/3/6 140/3/6

v 0.125 0.0625004991889 -1.09375
v 0.125 0.0000005 -1.09375
v -0.125 0.0000005 -1.09375
v -0.125 0.0625004991889 -1.09375
v -0.125 0.0625 1.09375
v -0.125 0 1.09375
v 0.125 0 1.09375
v 0.125 0.0625 1.09375
# 8 vertices

# 0 normal

vt 0.78905999660492 0.02344000339508 0
vt 0.78905999660492 0.00780999660492 0
vt 0.72655999660492 0.00780999660492 0
vt 0.72655999660492 0.02344000339508 0
vt 0.86719000339508 0.02344000339508 0
vt 0.86719000339508 0.00780999660492 0
vt 0.80469000339508 0.00780999660492 0
vt 0.80469000339508 0.02344000339508 0
vt 0.71094000339508 0.02344000339508 0
vt 0.71094000339508 0.00780999660492 0
vt 0.16405999660492 0.00780999660492 0
vt 0.16405999660492 0.02344000339508 0
vt 0.71094000339508 0.05469000339508 0
vt 0.71094000339508 0.03905999660492 0
vt 0.16405999660492 0.03905999660492 0
vt 0.16405999660492 0.05469000339508 0
vt 0.07030999660492 0.55469000339508 0
vt 0.07030999660492 0.00780999660492 0
vt 0.00780999986455 0.00780999660492 0
vt 0.00780999986455 0.55469000339508 0
vt 0.14844000339508 0.55469000339508 0
vt 0.14844000339508 0.00780999660492 0
vt 0.08594000339508 0.00780999660492 0
vt 0.08594000339508 0.55469000339508 0
# 24 texture coordinates

o RAIL_BASE_2
usemtl palette
f 141/7/3 142/6/3 143/5/3 144/4/3
f 145/11/4 146/10/4 147/9/4 148/8/4
f 144/15/2 143/14/2 146/13/2 145/12/2
f 148/19/1 147/18/1 142/17/1 141/16/1
f 144/23/6 145/22/6 148/21/6 141/20/6
f 146/27/5 143/26/5 142/25/5 147/24/5

