# WaveFront *.obj file (generated by CINEMA 4D)

mtllib ./trammid.mtl

v 0.53125 0 -0.78125
v 0.53125 0 -0.875
v 0.53125 0.15625 -0.78125
v 0.53125 0.15625 -0.84375
v 0.53125 0.1875 -0.78125
v 0.53125 0.1875 -0.84375
v 0.53125 0.1875 -0.875
v -0.53125 0.15625 -0.78125
v -0.53125 0 -0.875
v -0.53125 0 -0.78125
v -0.53125 0.15625 -0.84375
v -0.53125 0.1875 -0.78125
v -0.53125 0.1875 -0.84375
v -0.53125 0.1875 -0.875
# 14 vertices

vn 1 0 0
vn -1 0 0
vn 0 0 1
vn 0 0 -1
vn 0 -1 0
vn 0 1 0
# 6 normals

vt 0.53320300579071 0.5 0
vt 0.97070300579071 0.5 0
# 2 texture coordinates

o RAIL_RIGHT
usemtl palette
f 1/1/1 2/1/1 3/1/1
f 3/1/1 2/1/1 4/1/1
f 3/2/1 4/2/1 5/2/1
f 4/1/1 2/1/1 6/1/1
f 5/2/1 4/2/1 6/2/1
f 6/1/1 2/1/1 7/1/1
f 8/1/2 9/1/2 10/1/2
f 11/1/2 9/1/2 8/1/2
f 12/2/2 11/2/2 8/2/2
f 13/1/2 9/1/2 11/1/2
f 13/2/2 11/2/2 12/2/2
f 14/1/2 9/1/2 13/1/2
f 1/1/3 3/1/3 10/1/3
f 3/2/3 5/2/3 8/2/3
f 10/1/3 3/1/3 8/1/3
f 8/2/3 5/2/3 12/2/3
f 9/1/4 7/1/4 2/1/4
f 14/1/4 7/1/4 9/1/4
f 1/1/5 10/1/5 2/1/5
f 2/1/5 10/1/5 9/1/5
f 6/2/6 12/2/6 5/2/6
f 13/2/6 12/2/6 6/2/6
f 7/1/6 13/1/6 6/1/6
f 14/1/6 13/1/6 7/1/6

v 0.53125 0.15625 0.78125
v 0.53125 0 0.875
v 0.53125 0 0.78125
v 0.53125 0.15625 0.84375
v 0.53125 0.1875 0.78125
v 0.53125 0.1875 0.84375
v 0.53125 0.1875 0.875
v -0.53125 0 0.78125
v -0.53125 0 0.875
v -0.53125 0.15625 0.78125
v -0.53125 0.15625 0.84375
v -0.53125 0.1875 0.78125
v -0.53125 0.1875 0.84375
v -0.53125 0.1875 0.875
# 14 vertices

# 0 normal

# 0 texture coordinate

o RAIL_LEFT
usemtl palette
f 15/1/1 16/1/1 17/1/1
f 18/1/1 16/1/1 15/1/1
f 19/2/1 18/2/1 15/2/1
f 20/1/1 16/1/1 18/1/1
f 20/2/1 18/2/1 19/2/1
f 21/1/1 16/1/1 20/1/1
f 22/1/2 23/1/2 24/1/2
f 24/1/2 23/1/2 25/1/2
f 24/2/2 25/2/2 26/2/2
f 25/1/2 23/1/2 27/1/2
f 26/2/2 25/2/2 27/2/2
f 27/1/2 23/1/2 28/1/2
f 22/1/4 15/1/4 17/1/4
f 24/2/4 19/2/4 15/2/4
f 24/1/4 15/1/4 22/1/4
f 26/2/4 19/2/4 24/2/4
f 16/1/3 21/1/3 23/1/3
f 23/1/3 21/1/3 28/1/3
f 16/1/5 22/1/5 17/1/5
f 23/1/5 22/1/5 16/1/5
f 19/2/6 26/2/6 20/2/6
f 20/2/6 26/2/6 27/2/6
f 20/1/6 27/1/6 21/1/6
f 21/1/6 27/1/6 28/1/6

