# WaveFront *.obj file (generated by CINEMA 4D)

mtllib ./voxel-highbed.mtl

v -0.53125 0.21875 -0.75
v -0.53125 0.21875 -0.90625
v -0.53125 0.25 -0.75
v -0.53125 0.25 -0.8125
v -0.53125 0.25 -0.84375
v -0.53125 0.25 -0.90625
v -0.53125 0.375 -0.84375
v -0.53125 0.375 -0.875
v -0.53125 0.4375 -0.875
v 0.53125 0.21875 -0.75
v 0.53125 0.21875 -0.90625
v 0.53125 0.25 -0.75
v 0.53125 0.25 -0.8125
v 0.53125 0.25 -0.84375
v 0.53125 0.25 -0.90625
v 0.53125 0.375 -0.84375
v 0.53125 0.375 -0.875
v 0.53125 0.4375 -0.875
v -0.53125 0.375 -0.8125
v -0.53125 0.40625 -0.78125
v -0.53125 0.375 -0.78125
v -0.53125 0.40625 -0.84375
v -0.53125 0.4375 -0.78125
v -0.53125 0.4375 -0.84375
v 0.53125 0.375 -0.8125
v 0.53125 0.375 -0.78125
v 0.53125 0.40625 -0.78125
v 0.53125 0.40625 -0.84375
v 0.53125 0.4375 -0.78125
v 0.53125 0.4375 -0.84375
# 30 vertices

vn -1 0 0
vn 1 0 0
vn 0 0 1
vn 0 0 -1
vn 0 -1 0
vn 0 1 0
# 6 normals

vt 0.53320300579071 0.5 0
vt 0.97070300579071 0.5 0
# 2 texture coordinates

o RAIL_RIGHT
usemtl palette
f 3/1/1 2/1/1 1/1/1
f 4/1/1 2/1/1 3/1/1
f 5/1/1 2/1/1 4/1/1
f 6/1/1 2/1/1 5/1/1
f 19/1/1 5/1/1 4/1/1
f 7/1/1 5/1/1 19/1/1
f 20/1/1 19/1/1 21/1/1
f 20/1/1 8/1/1 7/1/1
f 20/1/1 7/1/1 19/1/1
f 22/1/1 8/1/1 20/1/1
f 23/2/1 22/2/1 20/2/1
f 24/1/1 8/1/1 22/1/1
f 24/2/1 22/2/1 23/2/1
f 9/1/1 8/1/1 24/1/1
f 10/1/2 11/1/2 12/1/2
f 12/1/2 11/1/2 13/1/2
f 13/1/2 11/1/2 14/1/2
f 14/1/2 11/1/2 15/1/2
f 13/1/2 14/1/2 25/1/2
f 25/1/2 14/1/2 16/1/2
f 26/1/2 25/1/2 27/1/2
f 16/1/2 17/1/2 27/1/2
f 25/1/2 16/1/2 27/1/2
f 27/1/2 17/1/2 28/1/2
f 27/2/2 28/2/2 29/2/2
f 28/1/2 17/1/2 30/1/2
f 29/2/2 28/2/2 30/2/2
f 30/1/2 17/1/2 18/1/2
f 10/1/3 3/1/3 1/1/3
f 12/1/3 3/1/3 10/1/3
f 26/1/3 20/1/3 21/1/3
f 27/2/3 23/2/3 20/2/3
f 27/1/3 20/1/3 26/1/3
f 29/2/3 23/2/3 27/2/3
f 13/1/3 19/1/3 4/1/3
f 25/1/3 19/1/3 13/1/3
f 5/1/4 7/1/4 14/1/4
f 14/1/4 7/1/4 16/1/4
f 8/1/4 9/1/4 17/1/4
f 17/1/4 9/1/4 18/1/4
f 2/1/4 6/1/4 11/1/4
f 11/1/4 6/1/4 15/1/4
f 2/1/5 10/1/5 1/1/5
f 11/1/5 10/1/5 2/1/5
f 19/1/5 26/1/5 21/1/5
f 25/1/5 26/1/5 19/1/5
f 8/1/5 16/1/5 7/1/5
f 17/1/5 16/1/5 8/1/5
f 3/1/6 12/1/6 4/1/6
f 4/1/6 12/1/6 13/1/6
f 5/1/6 14/1/6 6/1/6
f 6/1/6 14/1/6 15/1/6
f 23/2/6 29/2/6 24/2/6
f 24/2/6 29/2/6 30/2/6
f 24/1/6 30/1/6 9/1/6
f 9/1/6 30/1/6 18/1/6

v -0.53125 0.21875 0.90625
v -0.53125 0.21875 0.75
v -0.53125 0.25 0.90625
v -0.53125 0.25 0.84375
v -0.53125 0.25 0.8125
v -0.53125 0.25 0.75
v -0.53125 0.375 0.875
v -0.53125 0.375 0.84375
v -0.53125 0.4375 0.875
v 0.53125 0.21875 0.90625
v 0.53125 0.21875 0.75
v 0.53125 0.25 0.90625
v 0.53125 0.25 0.84375
v 0.53125 0.25 0.8125
v 0.53125 0.25 0.75
v 0.53125 0.375 0.875
v 0.53125 0.375 0.84375
v 0.53125 0.4375 0.875
v 0.53125 0.375 0.8125
v 0.53125 0.40625 0.78125
v 0.53125 0.375 0.78125
v 0.53125 0.40625 0.84375
v 0.53125 0.4375 0.78125
v 0.53125 0.4375 0.84375
v -0.53125 0.375 0.8125
v -0.53125 0.375 0.78125
v -0.53125 0.40625 0.78125
v -0.53125 0.40625 0.84375
v -0.53125 0.4375 0.78125
v -0.53125 0.4375 0.84375
# 30 vertices

# 0 normal

# 0 texture coordinate

o RAIL_LEFT
usemtl palette
f 45/1/2 40/1/2 41/1/2
f 44/1/2 40/1/2 45/1/2
f 43/1/2 40/1/2 44/1/2
f 42/1/2 40/1/2 43/1/2
f 49/1/2 43/1/2 44/1/2
f 47/1/2 43/1/2 49/1/2
f 50/1/2 49/1/2 51/1/2
f 50/1/2 46/1/2 47/1/2
f 50/1/2 47/1/2 49/1/2
f 52/1/2 46/1/2 50/1/2
f 53/2/2 52/2/2 50/2/2
f 54/1/2 46/1/2 52/1/2
f 54/2/2 52/2/2 53/2/2
f 48/1/2 46/1/2 54/1/2
f 32/1/1 31/1/1 36/1/1
f 36/1/1 31/1/1 35/1/1
f 35/1/1 31/1/1 34/1/1
f 34/1/1 31/1/1 33/1/1
f 35/1/1 34/1/1 55/1/1
f 55/1/1 34/1/1 38/1/1
f 56/1/1 55/1/1 57/1/1
f 38/1/1 37/1/1 57/1/1
f 55/1/1 38/1/1 57/1/1
f 57/1/1 37/1/1 58/1/1
f 57/2/1 58/2/1 59/2/1
f 58/1/1 37/1/1 60/1/1
f 59/2/1 58/2/1 60/2/1
f 60/1/1 37/1/1 39/1/1
f 32/1/4 45/1/4 41/1/4
f 36/1/4 45/1/4 32/1/4
f 56/1/4 50/1/4 51/1/4
f 57/2/4 53/2/4 50/2/4
f 57/1/4 50/1/4 56/1/4
f 59/2/4 53/2/4 57/2/4
f 35/1/4 49/1/4 44/1/4
f 55/1/4 49/1/4 35/1/4
f 43/1/3 47/1/3 34/1/3
f 34/1/3 47/1/3 38/1/3
f 46/1/3 48/1/3 37/1/3
f 37/1/3 48/1/3 39/1/3
f 40/1/3 42/1/3 31/1/3
f 31/1/3 42/1/3 33/1/3
f 40/1/5 32/1/5 41/1/5
f 31/1/5 32/1/5 40/1/5
f 49/1/5 56/1/5 51/1/5
f 55/1/5 56/1/5 49/1/5
f 46/1/5 38/1/5 47/1/5
f 37/1/5 38/1/5 46/1/5
f 45/1/6 36/1/6 44/1/6
f 44/1/6 36/1/6 35/1/6
f 43/1/6 34/1/6 42/1/6
f 42/1/6 34/1/6 33/1/6
f 53/2/6 59/2/6 54/2/6
f 54/2/6 59/2/6 60/2/6
f 54/1/6 60/1/6 48/1/6
f 48/1/6 60/1/6 39/1/6

v -0.564453125 0.21875 0.90625
v -0.564453125 0 -1.5
v -0.564453125 0 1.5
v -0.564453125 0.21875 0.75
v -0.564453125 0.21875 -0.75
v -0.564453125 0.21875 -0.90625
v -0.564453125 0.25 0.90625
v -0.564453125 0.25 0.84375
v -0.564453125 0.25 0.8125
v -0.564453125 0.25 0.75
v -0.564453125 0.25 -0.75
v -0.564453125 0.25 -0.8125
v -0.564453125 0.25 -0.84375
v -0.564453125 0.25 -0.90625
v -0.564453125 0.34375 0.8125
v -0.564453125 0.34375 0.6875
v -0.564453125 0.34375 -0.6875
v -0.564453125 0.34375 -0.8125
v -0.564453125 0.375 0.875
v -0.564453125 0.375 0.84375
v -0.564453125 0.375 0.71875
v -0.564453125 0.375 -0.71875
v -0.564453125 0.375 -0.84375
v -0.564453125 0.375 -0.875
v -0.564453125 0.4375 1.5
v -0.564453125 0.4375 0.875
v -0.564453125 0.4375 0.71875
v -0.564453125 0.4375 0.6875
v -0.564453125 0.4375 -0.6875
v -0.564453125 0.4375 -0.71875
v -0.564453125 0.4375 -0.875
v -0.564453125 0.4375 -1.5
v 0.564453125 0 1.5
v 0.564453125 0 -1.5
v 0.564453125 0.21875 0.90625
v 0.564453125 0.21875 0.75
v 0.564453125 0.21875 -0.75
v 0.564453125 0.21875 -0.90625
v 0.564453125 0.25 0.90625
v 0.564453125 0.25 0.84375
v 0.564453125 0.25 0.8125
v 0.564453125 0.25 0.75
v 0.564453125 0.25 -0.75
v 0.564453125 0.25 -0.8125
v 0.564453125 0.25 -0.84375
v 0.564453125 0.25 -0.90625
v 0.564453125 0.34375 0.8125
v 0.564453125 0.34375 0.6875
v 0.564453125 0.34375 -0.6875
v 0.564453125 0.34375 -0.8125
v 0.564453125 0.375 0.875
v 0.564453125 0.375 0.84375
v 0.564453125 0.375 0.71875
v 0.564453125 0.375 -0.71875
v 0.564453125 0.375 -0.84375
v 0.564453125 0.375 -0.875
v 0.564453125 0.4375 1.5
v 0.564453125 0.4375 0.875
v 0.564453125 0.4375 0.71875
v 0.564453125 0.4375 0.6875
v 0.564453125 0.4375 -0.6875
v 0.564453125 0.4375 -0.71875
v 0.564453125 0.4375 -0.875
v 0.564453125 0.4375 -1.5
# 64 vertices

# 0 normal

vt 0.97851598262787 0.5 0
# 1 texture coordinate

o RAIL_BASE
usemtl palette
f 61/3/1 62/3/1 63/3/1
f 64/3/1 62/3/1 61/3/1
f 65/3/1 62/3/1 64/3/1
f 66/3/1 62/3/1 65/3/1
f 67/3/1 61/3/1 63/3/1
f 67/1/1 64/1/1 61/1/1
f 68/1/1 64/1/1 67/1/1
f 69/1/1 64/1/1 68/1/1
f 70/3/1 65/3/1 64/3/1
f 70/1/1 64/1/1 69/1/1
f 71/1/1 66/1/1 65/1/1
f 71/3/1 65/3/1 70/3/1
f 72/1/1 66/1/1 71/1/1
f 73/1/1 66/1/1 72/1/1
f 74/3/1 62/3/1 66/3/1
f 74/1/1 66/1/1 73/1/1
f 75/3/1 70/3/1 69/3/1
f 75/1/1 69/1/1 68/1/1
f 75/3/1 71/3/1 70/3/1
f 75/3/1 72/3/1 71/3/1
f 76/3/1 72/3/1 75/3/1
f 77/3/1 72/3/1 76/3/1
f 78/1/1 73/1/1 72/1/1
f 78/3/1 72/3/1 77/3/1
f 79/3/1 68/3/1 67/3/1
f 80/1/1 75/1/1 68/1/1
f 80/3/1 68/3/1 79/3/1
f 80/1/1 76/1/1 75/1/1
f 81/1/1 76/1/1 80/1/1
f 82/1/1 78/1/1 77/1/1
f 83/3/1 74/3/1 73/3/1
f 83/1/1 78/1/1 82/1/1
f 83/1/1 73/1/1 78/1/1
f 84/3/1 74/3/1 83/3/1
f 85/3/1 67/3/1 63/3/1
f 85/3/1 79/3/1 67/3/1
f 86/3/1 79/3/1 85/3/1
f 87/1/1 76/1/1 81/1/1
f 88/3/1 77/3/1 76/3/1
f 88/1/1 76/1/1 87/1/1
f 89/1/1 82/1/1 77/1/1
f 89/3/1 77/3/1 88/3/1
f 90/1/1 82/1/1 89/1/1
f 91/3/1 74/3/1 84/3/1
f 92/3/1 62/3/1 74/3/1
f 92/3/1 74/3/1 91/3/1
f 93/3/2 94/3/2 95/3/2
f 95/3/2 94/3/2 96/3/2
f 96/3/2 94/3/2 97/3/2
f 97/3/2 94/3/2 98/3/2
f 93/3/2 95/3/2 99/3/2
f 95/1/2 96/1/2 99/1/2
f 99/1/2 96/1/2 100/1/2
f 100/1/2 96/1/2 101/1/2
f 96/3/2 97/3/2 102/3/2
f 101/1/2 96/1/2 102/1/2
f 97/1/2 98/1/2 103/1/2
f 102/3/2 97/3/2 103/3/2
f 103/1/2 98/1/2 104/1/2
f 104/1/2 98/1/2 105/1/2
f 98/3/2 94/3/2 106/3/2
f 105/1/2 98/1/2 106/1/2
f 101/3/2 102/3/2 107/3/2
f 100/1/2 101/1/2 107/1/2
f 102/3/2 103/3/2 107/3/2
f 103/3/2 104/3/2 107/3/2
f 107/3/2 104/3/2 108/3/2
f 108/3/2 104/3/2 109/3/2
f 104/1/2 105/1/2 110/1/2
f 109/3/2 104/3/2 110/3/2
f 99/3/2 100/3/2 111/3/2
f 100/1/2 107/1/2 112/1/2
f 111/3/2 100/3/2 112/3/2
f 107/1/2 108/1/2 112/1/2
f 112/1/2 108/1/2 113/1/2
f 109/1/2 110/1/2 114/1/2
f 105/3/2 106/3/2 115/3/2
f 114/1/2 110/1/2 115/1/2
f 110/1/2 105/1/2 115/1/2
f 115/3/2 106/3/2 116/3/2
f 93/3/2 99/3/2 117/3/2
f 99/3/2 111/3/2 117/3/2
f 117/3/2 111/3/2 118/3/2
f 113/1/2 108/1/2 119/1/2
f 108/3/2 109/3/2 120/3/2
f 119/1/2 108/1/2 120/1/2
f 109/1/2 114/1/2 121/1/2
f 120/3/2 109/3/2 121/3/2
f 121/1/2 114/1/2 122/1/2
f 116/3/2 106/3/2 123/3/2
f 106/3/2 94/3/2 124/3/2
f 123/3/2 106/3/2 124/3/2
f 93/3/3 85/3/3 63/3/3
f 117/3/3 85/3/3 93/3/3
f 113/1/3 87/1/3 81/1/3
f 119/1/3 87/1/3 113/1/3
f 116/3/3 91/3/3 84/3/3
f 123/3/3 91/3/3 116/3/3
f 79/3/4 86/3/4 111/3/4
f 111/3/4 86/3/4 118/3/4
f 82/1/4 90/1/4 114/1/4
f 114/1/4 90/1/4 122/1/4
f 62/3/4 92/3/4 94/3/4
f 94/3/4 92/3/4 124/3/4
f 62/3/5 93/3/5 63/3/5
f 94/3/5 93/3/5 62/3/5
f 79/3/6 111/3/6 80/3/6
f 80/3/6 111/3/6 112/3/6
f 80/1/6 112/1/6 81/1/6
f 81/1/6 112/1/6 113/1/6
f 82/1/6 114/1/6 83/1/6
f 83/1/6 114/1/6 115/1/6
f 83/3/6 115/3/6 84/3/6
f 84/3/6 115/3/6 116/3/6
f 85/3/6 117/3/6 86/3/6
f 86/3/6 117/3/6 118/3/6
f 87/1/6 119/1/6 88/1/6
f 88/1/6 119/1/6 120/1/6
f 88/3/6 120/3/6 89/3/6
f 89/3/6 120/3/6 121/3/6
f 89/1/6 121/1/6 90/1/6
f 90/1/6 121/1/6 122/1/6
f 91/3/6 123/3/6 92/3/6
f 92/3/6 123/3/6 124/3/6

