# Blender 3.2.0
# www.blender.org
mtllib voxel-meter-wood.mtl
o RAIL_BASE
v -0.500000 0.124000 0.000000
v -0.500000 0.062500 0.000000
v -0.500000 0.062500 1.062500
v -0.500000 0.123000 1.062500
v -0.375000 0.186500 0.625000
v -0.375000 0.123000 0.625000
v -0.375000 0.123000 0.937500
v -0.375000 0.185500 0.937500
v -0.375000 0.185500 0.000000
v -0.375000 0.123000 0.000000
v -0.375000 0.123000 0.437500
v -0.375000 0.186500 0.437500
v -0.375000 0.185500 -0.937500
v -0.375000 0.123000 -0.937500
v -0.375000 0.123000 -0.625000
v -0.375000 0.186500 -0.625000
v -0.312500 0.250000 0.562500
v -0.312500 0.185500 0.562500
v -0.312500 0.185500 0.687500
v -0.312500 0.250000 0.687500
v -0.312500 0.250000 0.375000
v -0.312500 0.185500 0.375000
v -0.312500 0.185500 0.500000
v -0.312500 0.250000 0.500000
v -0.312500 0.250000 -0.500000
v -0.312500 0.185500 -0.500000
v -0.312500 0.185500 -0.375000
v -0.312500 0.250000 -0.375000
v -0.312500 0.250000 -0.687500
v -0.312500 0.185500 -0.687500
v -0.312500 0.185500 -0.562500
v -0.312500 0.250000 -0.562500
v 0.125000 0.186500 0.625000
v 0.125000 0.123000 0.625000
v 0.125000 0.123000 0.937500
v 0.125000 0.185500 0.937500
v 0.125000 0.185500 0.000000
v 0.125000 0.123000 0.000000
v 0.125000 0.123000 0.437500
v 0.125000 0.186500 0.437500
v 0.125000 0.185500 -0.937500
v 0.125000 0.123000 -0.937500
v 0.125000 0.123000 -0.625000
v 0.125000 0.186500 -0.625000
v 0.187500 0.250000 0.562500
v 0.187500 0.185500 0.562500
v 0.187500 0.185500 0.687500
v 0.187500 0.250000 0.687500
v 0.187500 0.250000 0.375000
v 0.187500 0.185500 0.375000
v 0.187500 0.185500 0.500000
v 0.187500 0.250000 0.500000
v 0.187500 0.250000 -0.500000
v 0.187500 0.185500 -0.500000
v 0.187500 0.185500 -0.375000
v 0.187500 0.250000 -0.375000
v 0.187500 0.250000 -0.687500
v 0.187500 0.185500 -0.687500
v 0.187500 0.185500 -0.562500
v 0.187500 0.250000 -0.562500
v -0.187500 0.250000 0.687500
v -0.187500 0.185500 0.687500
v -0.187500 0.185500 0.375000
v -0.187500 0.185500 0.500000
v -0.187500 0.185500 -0.500000
v -0.187500 0.185500 -0.375000
v -0.187500 0.185500 -0.687500
v -0.187500 0.185500 -0.562500
v -0.250000 0.123000 0.625000
v -0.250000 0.123000 0.937500
v -0.250000 0.125000 0.000000
v -0.250000 0.123000 0.437500
v -0.250000 0.186500 -0.937500
v -0.125000 0.185500 -0.937500
v -0.125000 0.123000 -0.937500
v -0.250000 0.123000 -0.937500
v 0.312500 0.185500 0.562500
v 0.312500 0.185500 0.687500
v 0.312500 0.185500 0.375000
v 0.312500 0.185500 0.500000
v 0.312500 0.185500 -0.500000
v 0.312500 0.185500 -0.375000
v 0.312500 0.185500 -0.687500
v 0.312500 0.185500 -0.562500
v 0.250000 0.123000 0.625000
v 0.250000 0.123000 0.937500
v 0.250000 0.125000 0.000000
v 0.250000 0.123000 0.437500
v 0.250000 0.123000 -0.937500
v 0.250000 0.123000 -0.625000
v 0.000000 -0.000000 1.062500
v 0.000000 -0.000000 1.250000
v -0.500000 -0.000000 1.250000
v -0.500000 -0.000000 1.062500
v 0.000000 0.062500 0.000000
v 0.000000 0.062500 1.062500
v -0.250000 0.123000 -0.625000
v 0.000000 0.124000 1.062500
v -0.187500 0.185500 0.562500
v -0.250000 0.187500 0.437500
v 0.250000 0.187500 0.437500
v -0.187500 0.250000 0.500000
v 0.312500 0.250000 0.500000
v -0.187500 0.250000 -0.375000
v 0.312500 0.250000 -0.375000
v -0.250000 0.187500 -0.625000
v 0.250000 0.187500 -0.625000
v -0.187500 0.250000 -0.562500
v 0.312500 0.250000 -0.562500
v -0.250000 0.186500 0.937500
v 0.250000 0.186500 0.937500
v 0.312500 0.250000 0.687500
v 0.000000 0.061500 1.250000
v -0.500000 0.060500 1.250000
v -0.250000 0.187500 0.625000
v 0.250000 0.187500 0.625000
v 0.500000 0.062500 0.000000
v 0.500000 0.062500 1.062500
v -0.187500 0.250000 0.562500
v 0.312500 0.250000 0.562500
v -0.187500 0.250000 0.375000
v 0.312500 0.250000 0.375000
v -0.250000 0.186500 0.000000
v -0.250000 0.187500 -0.437500
v -0.375000 0.186500 -0.437500
v 0.250000 0.186500 0.000000
v 0.250000 0.187500 -0.437500
v 0.125000 0.186500 -0.437500
v 0.500000 0.123000 1.062500
v 0.500000 0.124000 0.000000
v 0.000000 0.125000 0.000000
v -0.187500 0.250000 -0.687500
v 0.312500 0.250000 -0.500000
v 0.500000 -0.000000 1.062500
v 0.500000 -0.000000 1.250000
v 0.312500 0.250000 -0.687500
v 0.500000 0.062500 -1.062500
v 0.500000 0.060500 -1.250000
v 0.000000 0.061500 -1.250000
v 0.000000 0.062500 -1.062500
v -0.125000 0.186500 -0.625000
v -0.125000 0.123000 -0.625000
v 0.250000 0.186500 -0.937500
v -0.500000 0.123000 -1.062500
v 0.000000 0.124000 -1.062500
v 0.000000 0.062500 -1.062500
v -0.500000 0.062500 -1.062500
v 0.500000 0.062500 -1.062500
v 0.500000 0.123000 -1.062500
v -0.500000 0.060500 -1.250000
v -0.500000 0.062500 -1.062500
v 0.500000 0.062500 1.062500
v 0.500000 0.060500 1.250000
v -0.125000 0.123000 0.625000
v -0.125000 0.186500 0.625000
v -0.125000 0.185500 0.937500
v -0.125000 0.123000 0.937500
v 0.375000 0.123000 0.625000
v 0.375000 0.186500 0.625000
v 0.375000 0.185500 0.937500
v 0.375000 0.123000 0.937500
v -0.125000 0.123000 0.000000
v -0.125000 0.185500 0.000000
v -0.125000 0.186500 0.437500
v -0.125000 0.123000 0.437500
v 0.375000 0.123000 0.000000
v 0.375000 0.185500 0.000000
v 0.375000 0.186500 0.437500
v 0.375000 0.123000 0.437500
v 0.375000 0.123000 -0.937500
v 0.375000 0.185500 -0.937500
v 0.375000 0.186500 -0.625000
v 0.375000 0.123000 -0.625000
v -0.187500 0.250000 -0.500000
v -0.125000 0.186500 -0.437500
v -0.125000 0.123000 -0.437500
v -0.250000 0.123000 -0.437500
v 0.375000 0.186500 -0.437500
v 0.375000 0.123000 -0.437500
v 0.250000 0.123000 -0.437500
v 0.500000 0.000000 -1.250000
v 0.000000 0.000000 -1.250000
v -0.500000 0.000000 -1.250000
v -0.500000 0.062500 1.062500
v -0.500000 0.000000 -1.062500
v 0.500000 0.000000 -1.062500
v 0.000000 0.062500 1.062500
v 0.000000 0.000000 -1.062500
v 0.125000 0.123000 -0.437500
v -0.375000 0.123000 -0.437500
vn -1.0000 -0.0000 -0.0000
vn -0.0000 -0.0000 1.0000
vn -0.0000 -1.0000 -0.0000
vn 0.0080 -1.0000 -0.0000
vn 0.0080 -1.0000 -0.0023
vn -0.0000 -0.0000 -1.0000
vn -0.0080 1.0000 0.0032
vn -0.0000 1.0000 -0.0000
vn -0.0080 1.0000 -0.0000
vn -0.0080 1.0000 0.0023
vn 0.0020 1.0000 0.0009
vn 0.0020 1.0000 -0.0000
vn -0.0000 1.0000 0.0009
vn 0.0005 1.0000 -0.0040
vn 0.0010 1.0000 -0.0080
vn -0.0000 1.0000 -0.0080
vn -0.0000 1.0000 -0.0040
vn 1.0000 -0.0000 -0.0000
vn -0.0080 1.0000 -0.0032
vn -0.0020 1.0000 -0.0000
vn -0.0020 1.0000 0.0009
vn -0.0010 1.0000 -0.0080
vn -0.0005 1.0000 -0.0040
vn -0.0000 1.0000 -0.0009
vn -0.0020 1.0000 -0.0009
vn 0.0020 1.0000 -0.0009
vn -0.0000 1.0000 0.0080
vn -0.0000 1.0000 0.0040
vn -0.0005 1.0000 0.0040
vn -0.0010 1.0000 0.0080
vn 0.0010 1.0000 0.0080
vn 0.0005 1.0000 0.0040
vn 0.0080 1.0000 -0.0000
vn 0.0080 1.0000 0.0023
vn -0.0080 -1.0000 -0.0000
vn -0.0080 -1.0000 -0.0023
vn 0.0080 1.0000 -0.0032
vn 0.0080 1.0000 0.0032
vn -0.0080 -1.0000 0.0023
vn 0.0080 1.0000 -0.0023
vn -0.0080 1.0000 -0.0023
vn 0.0080 -1.0000 0.0023
vt 0.265625 0.484375
vt 0.265625 0.500000
vt 0.265625 0.500000
vt -0.000000 0.500000
vt 0.015625 0.250032
vt -0.000000 0.484375
vt 0.000000 0.250032
vt 0.000000 0.500032
vt 0.078125 0.609407
vt 0.078125 0.625032
vt 0.062500 0.625032
vt 0.078125 0.625032
vt -0.000000 0.625032
vt -0.000000 0.609407
vt 0.015625 0.625032
vt -0.000000 0.625032
vt 0.234375 0.625000
vt 0.234375 0.609375
vt 0.234375 0.625000
vt 0.125000 0.625000
vt 0.125000 0.609375
vt 0.140625 0.625000
vt 0.125000 0.625032
vt 0.468750 0.609375
vt 0.468750 0.625000
vt 0.453125 0.625000
vt 0.468750 0.625000
vt 0.390625 0.625000
vt 0.390625 0.609375
vt 0.406250 0.625000
vt 0.390625 0.625000
vt 0.031250 0.671875
vt 0.031250 0.687500
vt 0.015625 0.687500
vt 0.031250 0.687500
vt -0.000000 0.687500
vt -0.000000 0.671875
vt 0.015625 0.687500
vt -0.000000 0.687500
vt 0.062500 0.671875
vt 0.062500 0.687500
vt 0.046875 0.687500
vt 0.062500 0.687500
vt 0.031250 0.687500
vt 0.031250 0.671875
vt 0.046875 0.687500
vt 0.031250 0.687500
vt 0.093750 0.671875
vt 0.093750 0.687500
vt 0.078125 0.687500
vt 0.093750 0.656250
vt 0.093750 0.687500
vt 0.062500 0.656250
vt 0.062500 0.687500
vt 0.062500 0.671875
vt 0.078125 0.687500
vt 0.062500 0.687500
vt 0.125000 0.671875
vt 0.109375 0.687500
vt 0.125000 0.687500
vt 0.125000 0.687500
vt 0.093750 0.687500
vt 0.093750 0.671875
vt 0.109375 0.687500
vt 0.093750 0.687500
vt 0.078125 0.546907
vt 0.078125 0.562532
vt 0.062500 0.562532
vt 0.078125 0.562532
vt -0.000000 0.562532
vt -0.000000 0.546907
vt 0.015625 0.562532
vt -0.000000 0.562532
vt 0.250000 0.546875
vt 0.234375 0.562500
vt 0.250000 0.562500
vt 0.234375 0.546875
vt 0.250000 0.562500
vt 0.234375 0.562500
vt 0.125000 0.562532
vt 0.125000 0.546907
vt 0.140625 0.562532
vt 0.125000 0.562532
vt 0.468750 0.546875
vt 0.468750 0.562500
vt 0.453125 0.562500
vt 0.468750 0.562500
vt 0.390625 0.562500
vt 0.390625 0.546875
vt 0.406250 0.562500
vt 0.390625 0.562500
vt 0.031250 0.640625
vt 0.031250 0.656250
vt 0.015625 0.656250
vt 0.031250 0.656250
vt -0.000000 0.656250
vt -0.000000 0.640625
vt 0.015625 0.656250
vt -0.000000 0.656250
vt 0.062500 0.640625
vt 0.062500 0.656250
vt 0.046875 0.656250
vt 0.062500 0.656250
vt 0.031250 0.656250
vt 0.031250 0.640625
vt 0.046875 0.656250
vt 0.031250 0.656250
vt 0.093750 0.640625
vt 0.093750 0.656250
vt 0.078125 0.656250
vt 0.062500 0.625000
vt 0.093750 0.656250
vt 0.093750 0.625000
vt 0.062500 0.656250
vt 0.062500 0.640625
vt 0.078125 0.656250
vt 0.062500 0.656250
vt 0.125000 0.640625
vt 0.125000 0.656250
vt 0.109375 0.656250
vt 0.125000 0.656250
vt 0.093750 0.656250
vt 0.093750 0.640625
vt 0.109375 0.656250
vt 0.125000 0.625000
vt 0.015625 0.656250
vt -0.000000 0.656250
vt 0.000000 0.671875
vt -0.000000 0.656250
vt 0.062500 0.656250
vt 0.031250 0.656250
vt 0.093750 0.687500
vt 0.093750 0.656250
vt 0.062500 0.687500
vt 0.062500 0.656250
vt 0.125000 0.656250
vt 0.093750 0.656250
vt 0.078125 0.593782
vt 0.000000 0.593782
vt 0.234375 0.593750
vt 0.125000 0.593750
vt 0.468750 0.593750
vt 0.453125 0.593750
vt 0.453125 0.562500
vt 0.468750 0.578125
vt 0.468750 0.562500
vt 0.468750 0.562500
vt 0.468750 0.593750
vt 0.031250 0.625000
vt 0.000000 0.625000
vt 0.062500 0.625000
vt 0.031250 0.625000
vt 0.062500 0.656250
vt 0.093750 0.625000
vt 0.093750 0.656250
vt 0.062500 0.625000
vt 0.125000 0.625000
vt 0.093750 0.625000
vt 0.078125 0.531282
vt 0.000000 0.531282
vt 0.250000 0.531250
vt 0.234375 0.531250
vt 0.125000 0.531282
vt 0.468750 0.531250
vt 0.390625 0.531250
vt 0.046875 0.125000
vt 0.000000 0.125000
vt -0.000000 0.250000
vt 0.046875 0.250000
vt 0.265625 0.375000
vt 0.000000 0.375000
vt 0.015625 0.375032
vt 0.390625 0.593750
vt 0.000000 0.375032
vt 0.031250 0.656250
vt 0.140625 0.593750
vt 0.125000 0.593782
vt 0.140625 0.531282
vt 0.125000 0.531282
vt 0.046875 0.656250
vt 0.031250 0.656250
vt 0.031250 0.671875
vt 0.046875 0.625000
vt 0.031250 0.625000
vt 0.031250 0.640625
vt 0.078125 0.656250
vt 0.062500 0.671875
vt 0.062500 0.656250
vt 0.078125 0.625000
vt 0.062500 0.625000
vt 0.062500 0.640625
vt 0.390625 0.593750
vt 0.406250 0.593750
vt 0.390625 0.531250
vt 0.406250 0.531250
vt 0.109375 0.656250
vt 0.093750 0.656250
vt 0.093750 0.671875
vt 0.109375 0.625000
vt 0.093750 0.625000
vt 0.093750 0.640625
vt 0.000000 0.593782
vt 0.015625 0.593782
vt 0.000000 0.531282
vt 0.015625 0.531282
vt 0.015625 0.625000
vt -0.000000 0.625000
vt 0.000000 0.640625
vt 0.015625 0.125000
vt 0.000000 0.125032
vt 0.015625 0.250000
vt -0.000000 0.234375
vt 0.000000 0.250032
vt 0.062500 0.593782
vt 0.078125 0.593782
vt 0.062500 0.531282
vt 0.078125 0.531282
vt 0.265625 0.250000
vt -0.000000 0.250000
vt 0.015625 0.500032
vt 0.031250 0.656250
vt 0.031250 0.671875
vt 0.015625 0.656250
vt 0.031250 0.625000
vt 0.031250 0.640625
vt 0.015625 0.625000
vt 0.062500 0.656250
vt 0.062500 0.671875
vt 0.046875 0.656250
vt 0.062500 0.625000
vt 0.062500 0.640625
vt 0.046875 0.625000
vt 0.234375 0.593750
vt 0.328125 0.593750
vt 0.343750 0.593750
vt 0.343750 0.625000
vt 0.328125 0.625000
vt 0.343750 0.609375
vt 0.234375 0.531250
vt 0.250000 0.531250
vt 0.328125 0.531250
vt 0.343750 0.531250
vt 0.343750 0.562500
vt 0.328125 0.562500
vt 0.343750 0.546875
vt 0.000000 0.250032
vt -0.000000 0.265625
vt 0.000000 0.500032
vt 0.265625 0.265625
vt 0.265625 0.250000
vt 0.265625 0.375000
vt 0.109375 0.656250
vt 0.125000 0.656250
vt 0.125000 0.671875
vt 0.093750 0.625000
vt 0.093750 0.640625
vt 0.078125 0.625000
vt 0.046875 0.000000
vt 0.000000 0.000000
vt 0.093750 0.656250
vt 0.125000 0.640625
vt 0.109375 0.625000
vt 0.578125 0.015625
vt 0.578125 -0.000000
vt 0.625000 -0.000000
vt 0.609375 -0.000000
vt 0.625000 0.015625
vt 0.625000 0.125000
vt 0.609375 0.125000
vt 0.578125 0.125000
vt 0.390625 0.578125
vt 0.390625 0.562500
vt 0.406250 0.562500
vt 0.390625 0.562500
vt 0.453125 0.531250
vt 0.468750 0.531250
vt 0.515625 0.500000
vt 0.531250 0.484375
vt 0.531250 0.500000
vt 0.515625 0.375000
vt 0.531250 0.375000
vt 0.531250 0.375000
vt 0.531250 0.500000
vt 0.531250 0.250000
vt 0.531250 0.265625
vt 0.515625 0.250000
vt 0.531250 0.250000
vt 0.625000 0.250000
vt 0.609375 0.250000
vt 0.625000 0.234375
vt 0.578125 0.234375
vt 0.578125 0.250000
vt 0.046875 0.015625
vt 0.046875 0.000032
vt 0.000000 0.015625
vt 0.015625 -0.000000
vt 0.000000 0.000032
vt 0.078125 0.562532
vt 0.078125 0.578157
vt 0.062500 0.562532
vt 0.078125 0.562532
vt -0.000000 0.578157
vt -0.000000 0.562532
vt 0.015625 0.562532
vt -0.000000 0.562532
vt 0.078125 0.500032
vt 0.078125 0.515657
vt 0.062500 0.500032
vt 0.078125 0.500032
vt -0.000000 0.515657
vt -0.000000 0.500032
vt 0.015625 0.500032
vt -0.000000 0.500032
vt 0.234375 0.562500
vt 0.234375 0.562500
vt 0.234375 0.578125
vt 0.125000 0.578125
vt 0.140625 0.562500
vt 0.125000 0.562532
vt 0.125000 0.562500
vt 0.250000 0.500000
vt 0.234375 0.500000
vt 0.250000 0.515625
vt 0.234375 0.500000
vt 0.250000 0.500000
vt 0.234375 0.515625
vt 0.125000 0.515657
vt 0.140625 0.500032
vt 0.125000 0.500032
vt 0.125000 0.500032
vt 0.468750 0.500000
vt 0.468750 0.515625
vt 0.453125 0.500000
vt 0.468750 0.500000
vt 0.390625 0.515625
vt 0.390625 0.500000
vt 0.406250 0.500000
vt 0.390625 0.500000
vt 0.093750 0.671875
vt 0.093750 0.656250
vt 0.078125 0.656250
vt 0.328125 0.562500
vt 0.343750 0.562500
vt 0.343750 0.578125
vt 0.343750 0.562500
vt 0.343750 0.593750
vt 0.328125 0.500000
vt 0.343750 0.500000
vt 0.343750 0.515625
vt 0.343750 0.500000
vt 0.343750 0.531250
vt 0.625000 -0.000000
vt 0.625000 0.125000
vt 0.625000 0.250000
vt 0.046875 0.234375
vt 0.046875 0.250032
vt 0.578125 0.250000
vt 0.578125 -0.000000
vt 0.046875 0.125032
vt 0.578125 0.125000
vt 0.343750 0.562500
vt 0.343750 0.625000
s 1
usemtl palette
f 1/1/1 2/3/1 3/4/1 4/6/1
f 5/9/1 6/12/1 7/13/1 8/14/1
f 9/18/1 10/19/1 11/20/1 12/21/1
f 13/24/1 14/27/1 15/28/1 16/29/1
f 17/32/1 18/35/1 19/36/1 20/37/1
f 21/40/1 22/43/1 23/44/1 24/45/1
f 25/48/1 26/52/1 27/54/1 28/55/1
f 29/58/1 30/61/1 31/62/1 32/63/1
f 33/66/1 34/69/1 35/70/1 36/71/1
f 37/74/1 38/78/1 39/80/1 40/81/1
f 41/84/1 42/87/1 43/88/1 44/89/1
f 45/92/1 46/95/1 47/96/1 48/97/1
f 49/100/1 50/103/1 51/104/1 52/105/1
f 53/108/1 54/112/1 55/114/1 56/115/1
f 57/118/1 58/121/1 59/122/1 60/123/1
f 61/126/2 20/38/2 19/36/2 62/129/2
f 63/130/3 64/131/3 23/44/3 22/43/3
f 65/132/3 66/134/3 27/53/3 26/51/3
f 67/136/3 68/137/3 31/62/3 30/61/3
f 69/138/3 70/139/3 7/13/3 6/12/3
f 71/140/4 72/141/5 11/20/5 10/19/4
f 73/143/6 74/144/6 75/147/6 76/148/6
f 77/149/3 78/150/3 47/96/3 46/95/3
f 79/151/3 80/152/3 51/104/3 50/103/3
f 81/153/3 82/155/3 55/113/3 54/111/3
f 83/157/3 84/158/3 59/122/3 58/121/3
f 85/159/3 86/160/3 35/70/3 34/69/3
f 87/161/4 88/163/5 39/80/5 38/78/4
f 89/164/3 90/165/3 43/88/3 42/87/3
f 91/166/3 92/167/3 93/168/3 94/169/3
f 95/170/3 96/171/3 3/4/3 2/3/3
f 76/148/3 97/173/3 15/28/3 14/27/3
f 98/174/2 4/7/2 3/5/2 96/172/2
f 99/175/3 62/129/3 19/36/3 18/35/3
f 100/176/2 12/22/2 11/20/2 72/141/2
f 101/178/2 40/82/2 39/80/2 88/163/2
f 102/180/2 24/46/2 23/44/2 64/131/2
f 103/183/2 52/106/2 51/104/2 80/152/2
f 104/186/2 28/56/2 27/54/2 66/135/2
f 105/189/2 56/116/2 55/114/2 82/156/2
f 106/193/2 16/30/2 15/28/2 97/173/2
f 107/195/2 44/90/2 43/88/2 90/165/2
f 108/196/2 32/64/2 31/62/2 68/137/2
f 109/199/2 60/124/2 59/122/2 84/158/2
f 110/203/2 8/15/2 7/13/2 70/139/2
f 111/205/2 36/72/2 35/70/2 86/160/2
f 112/206/2 48/98/2 47/96/2 78/150/2
f 113/209/2 114/211/2 93/168/2 92/167/2
f 110/202/7 115/215/7 5/10/7 8/16/7
f 111/204/7 116/217/7 33/67/7 36/73/7
f 117/218/3 118/219/3 96/171/3 95/170/3
f 61/127/8 119/221/8 17/33/8 20/39/8
f 112/207/8 120/224/8 45/93/8 48/99/8
f 102/181/8 121/227/8 21/41/8 24/47/8
f 103/184/8 122/230/8 49/101/8 52/107/8
f 123/233/9 124/235/10 125/236/10 9/17/9
f 126/239/9 127/242/10 128/243/10 37/75/9
f 129/246/11 130/250/12 131/251/8 98/174/13
f 29/59/6 132/252/6 67/136/6 30/61/6
f 105/190/8 133/255/8 53/109/8 56/117/8
f 134/258/3 135/259/3 92/167/3 91/166/3
f 108/197/8 132/253/8 29/60/8 32/65/8
f 109/200/8 136/260/8 57/119/8 60/125/8
f 137/264/14 138/265/15 139/268/16 140/270/17
f 75/147/18 74/145/18 141/271/18 142/274/18
f 107/194/19 143/276/19 41/85/19 44/91/19
f 144/277/6 145/280/6 146/282/6 147/283/6
f 98/174/13 131/251/8 1/2/20 4/8/21
f 148/284/18 149/285/18 130/249/18 117/218/18
f 140/270/17 139/268/16 150/288/22 151/292/23
f 144/278/1 147/283/1 2/3/1 1/1/1
f 134/258/18 152/293/18 153/295/18 135/259/18
f 117/218/18 130/249/18 129/247/18 118/219/18
f 154/298/18 155/299/18 156/302/18 157/305/18
f 158/306/18 159/307/18 160/310/18 161/313/18
f 162/314/18 163/316/18 164/317/18 165/320/18
f 166/321/18 167/323/18 168/327/18 169/330/18
f 131/251/8 145/281/24 144/279/25 1/2/20
f 170/331/18 171/332/18 172/335/18 173/338/18
f 99/175/18 119/222/18 61/128/18 62/129/18
f 77/149/18 120/225/18 112/208/18 78/150/18
f 63/130/18 121/228/18 102/182/18 64/131/18
f 79/151/18 122/231/18 103/185/18 80/152/18
f 65/133/18 174/339/18 104/187/18 66/135/18
f 81/154/18 133/256/18 105/191/18 82/156/18
f 67/136/18 132/254/18 108/198/18 68/137/18
f 83/157/18 136/261/18 109/201/18 84/158/18
f 145/280/6 149/286/6 148/284/6 146/282/6
f 146/282/3 95/170/3 2/3/3 147/283/3
f 104/188/8 174/340/8 25/49/8 28/57/8
f 124/234/6 175/342/6 176/345/6 177/346/6
f 127/241/6 178/347/6 179/350/6 180/351/6
f 129/248/2 98/174/2 96/172/2 118/220/2
f 106/192/19 73/142/19 13/25/19 16/31/19
f 143/275/6 171/333/6 170/331/6 89/164/6
f 130/250/12 149/287/26 145/281/24 131/251/8
f 45/94/6 120/226/6 77/149/6 46/95/6
f 139/269/6 138/266/6 181/352/6 182/353/6
f 148/284/3 117/218/3 95/170/3 146/282/3
f 21/42/6 121/229/6 63/130/6 22/43/6
f 49/102/6 122/232/6 79/151/6 50/103/6
f 25/50/6 174/341/6 65/133/6 26/52/6
f 53/110/6 133/257/6 81/154/6 54/112/6
f 17/34/6 119/223/6 99/175/6 18/35/6
f 57/120/6 136/262/6 83/157/6 58/121/6
f 153/296/2 113/209/2 92/167/2 135/259/2
f 115/214/6 155/300/6 154/298/6 69/138/6
f 116/216/6 159/308/6 158/306/6 85/159/6
f 150/289/6 139/269/6 182/353/6 183/354/6
f 184/355/1 94/169/1 93/168/1 114/212/1
f 151/291/1 185/357/1 94/169/1 184/355/1
f 186/358/18 137/263/18 152/293/18 134/258/18
f 113/210/27 187/359/28 184/356/29 114/213/30
f 153/297/31 152/294/32 187/359/28 113/210/27
f 186/358/3 134/258/3 91/166/3 188/360/3
f 188/360/3 91/166/3 94/169/3 185/357/3
f 182/353/3 188/360/3 185/357/3 183/354/3
f 181/352/3 186/358/3 188/360/3 182/353/3
f 181/352/18 138/267/18 137/263/18 186/358/18
f 150/290/1 183/354/1 185/357/1 151/291/1
f 187/359/28 140/270/17 151/292/23 184/356/29
f 152/294/32 137/264/14 140/270/17 187/359/28
f 128/244/6 127/241/6 180/351/6 189/361/6
f 167/324/33 178/348/34 127/242/34 126/239/33
f 168/328/2 101/178/2 88/163/2 169/330/2
f 166/321/35 169/330/36 88/163/36 87/161/35
f 41/86/6 143/275/6 89/164/6 42/87/6
f 172/336/37 171/334/37 143/276/37 107/194/37
f 172/337/2 107/195/2 90/165/2 173/338/2
f 170/331/3 173/338/3 90/165/3 89/164/3
f 141/272/37 74/146/37 73/142/37 106/192/37
f 141/273/2 106/193/2 97/173/2 142/274/2
f 75/147/3 142/274/3 97/173/3 76/148/3
f 13/26/6 73/143/6 76/148/6 14/27/6
f 33/68/6 116/216/6 85/159/6 34/69/6
f 160/311/38 159/309/38 116/217/38 111/204/38
f 160/312/2 111/205/2 86/160/2 161/313/2
f 158/306/3 161/313/3 86/160/3 85/159/3
f 5/11/6 115/214/6 69/138/6 6/12/6
f 156/303/38 155/301/38 115/215/38 110/202/38
f 156/304/2 110/203/2 70/139/2 157/305/2
f 154/298/3 157/305/3 70/139/3 69/138/3
f 125/237/6 124/234/6 177/346/6 190/362/6
f 163/315/33 175/343/34 124/235/34 123/233/33
f 164/318/2 100/176/2 72/141/2 165/320/2
f 162/314/35 165/320/36 72/141/36 71/140/35
f 179/350/39 166/322/35 87/162/35 180/351/39
f 168/329/40 167/325/33 126/240/33 101/179/40
f 179/350/18 178/349/18 167/326/18 166/322/18
f 101/179/41 126/240/9 37/76/9 40/83/41
f 180/351/42 87/162/4 38/79/4 189/361/42
f 128/245/1 189/361/1 38/79/1 37/77/1
f 176/345/39 162/314/35 71/140/35 177/346/39
f 164/319/40 163/315/33 123/233/33 100/177/40
f 176/345/18 175/344/18 163/316/18 162/314/18
f 100/177/41 123/233/9 9/17/9 12/23/41
f 177/346/42 71/140/4 10/19/4 190/362/42
f 125/238/1 190/362/1 10/19/1 9/18/1
